# xmcd
#
# Track frame offsets:
#	150
#	15468
#	31543
#	43530
#	60722
#	75230
#	96763
#	113982
#	129565
#	141583
#
# Disc length: 2198 seconds
#
# Revision: 1
# Processed by: cddbd v1.5.2PL0 Copyright (c) Steve Scherf et al.
# Submitted via: EasyCDDAExtractor 15.2.5.1
#
DISCID=7708940a
DTITLE=The Mavericks - From Hell To Paradise
DYEAR=1992
DGENRE=Country
TTITLE0=Mr. Jones
TTITLE1=The End Of The Line
TTITLE2=Excuse Me (I Think I've Got A Heartache)
TTITLE3=This Broken Heart
TTITLE4=I Got You
TTITLE5=From Hell To Paradise
TTITLE6=A Better Way
TTITLE7=Forever Blue
TTITLE8=Hey Good Lookin'
TTITLE9=Children
EXTD=YEAR: 1992  ID3G:   2
EXTT0=
EXTT1=
EXTT2=
EXTT3=
EXTT4=
EXTT5=
EXTT6=
EXTT7=
EXTT8=
EXTT9=
PLAYORDER=
